<mxfile host="app.diagrams.net" modified="2020-08-08T08:58:37.856Z" agent="5.0 (Windows NT 10.0; Win64; x64) AppleWebKit/537.36 (KHTML, like Gecko) Chrome/84.0.4147.105 Safari/537.36" etag="jw3nsFE4heB32wWyjeTO" version="13.6.1" type="github">
  <diagram id="OJBzQnIsMpan6S47nhS9" name="Page-1">
    <mxGraphModel dx="1422" dy="762" grid="1" gridSize="10" guides="1" tooltips="1" connect="1" arrows="1" fold="1" page="1" pageScale="1" pageWidth="827" pageHeight="1169" math="0" shadow="0">
      <root>
        <mxCell id="0" />
        <mxCell id="1" parent="0" />
        <mxCell id="uMp3_04i5Rye9W2LQGWp-1" value="" style="shape=umlLifeline;participant=umlActor;perimeter=lifelinePerimeter;whiteSpace=wrap;html=1;container=1;collapsible=0;recursiveResize=0;verticalAlign=top;spacingTop=36;outlineConnect=0;" parent="1" vertex="1">
          <mxGeometry x="60" y="40" width="20" height="300" as="geometry" />
        </mxCell>
        <mxCell id="uMp3_04i5Rye9W2LQGWp-2" value="" style="shape=umlLifeline;participant=umlActor;perimeter=lifelinePerimeter;whiteSpace=wrap;html=1;container=1;collapsible=0;recursiveResize=0;verticalAlign=top;spacingTop=36;outlineConnect=0;" parent="1" vertex="1">
          <mxGeometry x="290" y="40" width="20" height="300" as="geometry" />
        </mxCell>
        <mxCell id="uMp3_04i5Rye9W2LQGWp-3" value="" style="html=1;points=[];perimeter=orthogonalPerimeter;" parent="uMp3_04i5Rye9W2LQGWp-2" vertex="1">
          <mxGeometry y="80" width="10" height="80" as="geometry" />
        </mxCell>
        <mxCell id="uMp3_04i5Rye9W2LQGWp-4" value="dispatch" style="html=1;verticalAlign=bottom;startArrow=oval;endArrow=block;startSize=8;" parent="1" source="uMp3_04i5Rye9W2LQGWp-1" target="uMp3_04i5Rye9W2LQGWp-3" edge="1">
          <mxGeometry relative="1" as="geometry">
            <mxPoint x="230" y="120" as="sourcePoint" />
            <Array as="points">
              <mxPoint x="180" y="120" />
            </Array>
          </mxGeometry>
        </mxCell>
      </root>
    </mxGraphModel>
  </diagram>
</mxfile>
